<mxfile host="app.diagrams.net" agent="Mozilla/5.0 (Windows NT 10.0; Win64; x64) AppleWebKit/537.36 (KHTML, like Gecko) Chrome/131.0.0.0 Safari/537.36 Edg/131.0.0.0" version="26.0.5">
  <diagram name="Página-1" id="QcHAf7DddtmbsZ5z13pg">
    <mxGraphModel dx="946" dy="609" grid="1" gridSize="10" guides="1" tooltips="1" connect="1" arrows="1" fold="1" page="1" pageScale="1" pageWidth="827" pageHeight="1169" math="0" shadow="0">
      <root>
        <mxCell id="0" />
        <mxCell id="1" parent="0" />
        <UserObject label="&#xa;&#xa;&lt;div class=&quot;WordSection1&quot;&gt;&#xa;&#xa;&lt;p class=&quot;MsoNormal&quot;&gt;{&lt;/p&gt;&#xa;&#xa;&lt;p class=&quot;MsoNormal&quot;&gt;&lt;span style=&quot;mso-spacerun:yes&quot;&gt;� &lt;/span&gt;&quot;&lt;span class=&quot;SpellE&quot;&gt;services&lt;/span&gt;&quot;: {&lt;/p&gt;&#xa;&#xa;&lt;p class=&quot;MsoNormal&quot;&gt;&lt;span style=&quot;mso-spacerun:yes&quot;&gt;��� &lt;/span&gt;&quot;&lt;span class=&quot;SpellE&quot;&gt;wordpress&lt;/span&gt;&quot;: {&lt;/p&gt;&#xa;&#xa;&lt;p class=&quot;MsoNormal&quot;&gt;&lt;span style=&quot;mso-spacerun:yes&quot;&gt;����� &lt;/span&gt;&quot;&lt;span class=&quot;SpellE&quot;&gt;image&lt;/span&gt;&quot;: &quot;&lt;span class=&quot;SpellE&quot;&gt;wordpress&lt;/span&gt;&quot;,&lt;/p&gt;&#xa;&#xa;&lt;p class=&quot;MsoNormal&quot;&gt;&lt;span style=&quot;mso-spacerun:yes&quot;&gt;����� &lt;/span&gt;&quot;&lt;span class=&quot;SpellE&quot;&gt;restart&lt;/span&gt;&quot;: &quot;&lt;span class=&quot;SpellE&quot;&gt;always&lt;/span&gt;&quot;,&lt;/p&gt;&#xa;&#xa;&lt;p class=&quot;MsoNormal&quot;&gt;&lt;span style=&quot;mso-spacerun:yes&quot;&gt;����� &lt;/span&gt;&quot;&lt;span class=&quot;SpellE&quot;&gt;ports&lt;/span&gt;&quot;: [&quot;80:80&quot;],&lt;/p&gt;&#xa;&#xa;&lt;p class=&quot;MsoNormal&quot;&gt;&lt;span style=&quot;mso-spacerun:yes&quot;&gt;����� &lt;/span&gt;&quot;&lt;span class=&quot;SpellE&quot;&gt;environment&lt;/span&gt;&quot;: {&lt;/p&gt;&#xa;&#xa;&lt;p class=&quot;MsoNormal&quot;&gt;&lt;span style=&quot;mso-spacerun:yes&quot;&gt;�������&#xa;&lt;/span&gt;&quot;WORDPRESS_DB_HOST&quot;:&#xa;&quot;db-1.cnw2yuaeu5s6.us-east-1.rds.amazonaws.com&quot;,&lt;/p&gt;&#xa;&#xa;&lt;p class=&quot;MsoNormal&quot;&gt;&lt;span style=&quot;mso-spacerun:yes&quot;&gt;�������&#xa;&lt;/span&gt;&quot;WORDPRESS_DB_USER&quot;: &quot;&lt;span class=&quot;SpellE&quot;&gt;admin&lt;/span&gt;&quot;,&lt;/p&gt;&#xa;&#xa;&lt;p class=&quot;MsoNormal&quot;&gt;&lt;span style=&quot;mso-spacerun:yes&quot;&gt;������� &lt;/span&gt;&quot;WORDPRESS_DB_PASSWORD&quot;:&#xa;&quot;87654321&quot;,&lt;/p&gt;&#xa;&#xa;&lt;p class=&quot;MsoNormal&quot;&gt;&lt;span style=&quot;mso-spacerun:yes&quot;&gt;�������&#xa;&lt;/span&gt;&quot;WORDPRESS_DB_NAME&quot;: &quot;&lt;span class=&quot;SpellE&quot;&gt;wordb&lt;/span&gt;&quot;&lt;/p&gt;&#xa;&#xa;&lt;p class=&quot;MsoNormal&quot;&gt;&lt;span style=&quot;mso-spacerun:yes&quot;&gt;����� &lt;/span&gt;},&lt;/p&gt;&#xa;&#xa;&lt;p class=&quot;MsoNormal&quot;&gt;&lt;span style=&quot;mso-spacerun:yes&quot;&gt;�����&#xa;&lt;/span&gt;&quot;volumes&quot;: [&quot;/&lt;span class=&quot;SpellE&quot;&gt;mnt&lt;/span&gt;/&lt;span class=&quot;SpellE&quot;&gt;efs&lt;/span&gt;/&lt;span class=&quot;SpellE&quot;&gt;wordpress&lt;/span&gt;:/var/&lt;span class=&quot;SpellE&quot;&gt;www&lt;/span&gt;/&lt;span class=&quot;SpellE&quot;&gt;html&lt;/span&gt;&quot;]&lt;/p&gt;&#xa;&#xa;&lt;p class=&quot;MsoNormal&quot;&gt;&lt;span style=&quot;mso-spacerun:yes&quot;&gt;��� &lt;/span&gt;}&lt;/p&gt;&#xa;&#xa;&lt;p class=&quot;MsoNormal&quot;&gt;&lt;span style=&quot;mso-spacerun:yes&quot;&gt;� &lt;/span&gt;},&lt;/p&gt;&#xa;&#xa;&lt;p class=&quot;MsoNormal&quot;&gt;&lt;span style=&quot;mso-spacerun:yes&quot;&gt;� &lt;/span&gt;&quot;&lt;span class=&quot;SpellE&quot;&gt;commands&lt;/span&gt;&quot;: [&lt;/p&gt;&#xa;&#xa;&lt;p class=&quot;MsoNormal&quot;&gt;&lt;span style=&quot;mso-spacerun:yes&quot;&gt;��� &lt;/span&gt;{&lt;/p&gt;&#xa;&#xa;&lt;p class=&quot;MsoNormal&quot;&gt;&lt;span style=&quot;mso-spacerun:yes&quot;&gt;����� &lt;/span&gt;&quot;&lt;span class=&quot;SpellE&quot;&gt;description&lt;/span&gt;&quot;: &quot;Download &lt;span class=&quot;SpellE&quot;&gt;Docker&lt;/span&gt;&#xa;&lt;span class=&quot;SpellE&quot;&gt;Compose&lt;/span&gt;&quot;,&lt;/p&gt;&#xa;&#xa;&lt;p class=&quot;MsoNormal&quot;&gt;&lt;span style=&quot;mso-spacerun:yes&quot;&gt;����� &lt;/span&gt;&quot;&lt;span class=&quot;SpellE&quot;&gt;command&lt;/span&gt;&quot;: &quot;&lt;span class=&quot;SpellE&quot;&gt;sudo&lt;/span&gt; &lt;span class=&quot;SpellE&quot;&gt;curl&lt;/span&gt; -L&#xa;https://github.com/docker/compose/releases/latest/download/docker-compose-$(uname&#xa;-&lt;span class=&quot;GramE&quot;&gt;s)-&lt;/span&gt;$(&lt;span class=&quot;SpellE&quot;&gt;uname&lt;/span&gt; -m) -o /&lt;span class=&quot;SpellE&quot;&gt;usr&lt;/span&gt;/local/bin/&lt;span class=&quot;SpellE&quot;&gt;docker-compose&lt;/span&gt;&quot;&lt;/p&gt;&#xa;&#xa;&lt;p class=&quot;MsoNormal&quot;&gt;&lt;span style=&quot;mso-spacerun:yes&quot;&gt;��� &lt;/span&gt;},&lt;/p&gt;&#xa;&#xa;&lt;p class=&quot;MsoNormal&quot;&gt;&lt;span style=&quot;mso-spacerun:yes&quot;&gt;��� &lt;/span&gt;{&lt;/p&gt;&#xa;&#xa;&lt;p class=&quot;MsoNormal&quot;&gt;&lt;span style=&quot;mso-spacerun:yes&quot;&gt;����� &lt;/span&gt;&quot;&lt;span class=&quot;SpellE&quot;&gt;description&lt;/span&gt;&quot;: &quot;&lt;span class=&quot;SpellE&quot;&gt;Make&lt;/span&gt; &lt;span class=&quot;SpellE&quot;&gt;Docker&lt;/span&gt; &lt;span class=&quot;SpellE&quot;&gt;Compose&lt;/span&gt; &lt;span class=&quot;SpellE&quot;&gt;executable&lt;/span&gt;&quot;,&lt;/p&gt;&#xa;&#xa;&lt;p class=&quot;MsoNormal&quot;&gt;&lt;span style=&quot;mso-spacerun:yes&quot;&gt;����� &lt;/span&gt;&quot;&lt;span class=&quot;SpellE&quot;&gt;command&lt;/span&gt;&quot;: &quot;&lt;span class=&quot;SpellE&quot;&gt;sudo&lt;/span&gt; &lt;span class=&quot;SpellE&quot;&gt;chmod&lt;/span&gt; +x /&lt;span class=&quot;SpellE&quot;&gt;usr&lt;/span&gt;/local/bin/&lt;span class=&quot;SpellE&quot;&gt;docker-compose&lt;/span&gt;&quot;&lt;/p&gt;&#xa;&#xa;&lt;p class=&quot;MsoNormal&quot;&gt;&lt;span style=&quot;mso-spacerun:yes&quot;&gt;��� &lt;/span&gt;},&lt;/p&gt;&#xa;&#xa;&lt;p class=&quot;MsoNormal&quot;&gt;&lt;span style=&quot;mso-spacerun:yes&quot;&gt;��� &lt;/span&gt;{&lt;/p&gt;&#xa;&#xa;&lt;p class=&quot;MsoNormal&quot;&gt;&lt;span style=&quot;mso-spacerun:yes&quot;&gt;����� &lt;/span&gt;&quot;&lt;span class=&quot;SpellE&quot;&gt;description&lt;/span&gt;&quot;: &quot;&lt;span class=&quot;SpellE&quot;&gt;Change&lt;/span&gt; &lt;span class=&quot;SpellE&quot;&gt;directory&lt;/span&gt; &lt;span class=&quot;SpellE&quot;&gt;to&lt;/span&gt; root&quot;,&lt;/p&gt;&#xa;&#xa;&lt;p class=&quot;MsoNormal&quot;&gt;&lt;span style=&quot;mso-spacerun:yes&quot;&gt;����� &lt;/span&gt;&quot;&lt;span class=&quot;SpellE&quot;&gt;command&lt;/span&gt;&quot;: &quot;&lt;span class=&quot;SpellE&quot;&gt;cd&lt;/span&gt; /&quot;&lt;/p&gt;&#xa;&#xa;&lt;p class=&quot;MsoNormal&quot;&gt;&lt;span style=&quot;mso-spacerun:yes&quot;&gt;��� &lt;/span&gt;},&lt;/p&gt;&#xa;&#xa;&lt;p class=&quot;MsoNormal&quot;&gt;&lt;span style=&quot;mso-spacerun:yes&quot;&gt;��� &lt;/span&gt;{&lt;/p&gt;&#xa;&#xa;&lt;p class=&quot;MsoNormal&quot;&gt;&lt;span style=&quot;mso-spacerun:yes&quot;&gt;����� &lt;/span&gt;&quot;&lt;span class=&quot;SpellE&quot;&gt;description&lt;/span&gt;&quot;: &quot;&lt;span class=&quot;SpellE&quot;&gt;Run&lt;/span&gt; &lt;span class=&quot;SpellE&quot;&gt;Docker&lt;/span&gt; &lt;span class=&quot;SpellE&quot;&gt;Compose&lt;/span&gt;&quot;,&lt;/p&gt;&#xa;&#xa;&lt;p class=&quot;MsoNormal&quot;&gt;&lt;span style=&quot;mso-spacerun:yes&quot;&gt;����� &lt;/span&gt;&quot;&lt;span class=&quot;SpellE&quot;&gt;command&lt;/span&gt;&quot;: &quot;&lt;span class=&quot;SpellE&quot;&gt;docker-compose&lt;/span&gt;&#xa;-p &lt;span class=&quot;SpellE&quot;&gt;wordpress&lt;/span&gt; &lt;span class=&quot;SpellE&quot;&gt;up&lt;/span&gt; -d&quot;&lt;/p&gt;&#xa;&#xa;&lt;p class=&quot;MsoNormal&quot;&gt;&lt;span style=&quot;mso-spacerun:yes&quot;&gt;��� &lt;/span&gt;}&lt;/p&gt;&#xa;&#xa;&lt;p class=&quot;MsoNormal&quot;&gt;&lt;span style=&quot;mso-spacerun:yes&quot;&gt;� &lt;/span&gt;]&lt;/p&gt;&#xa;&#xa;&lt;/div&gt;&#xa;&#xa;&#xa;&#xa;" link="&#xa;&#xa;&lt;div class=&quot;WordSection1&quot;&gt;&#xa;&#xa;&lt;p class=&quot;MsoNormal&quot;&gt;{&lt;/p&gt;&#xa;&#xa;&lt;p class=&quot;MsoNormal&quot;&gt;&lt;span style=&quot;mso-spacerun:yes&quot;&gt;� &lt;/span&gt;&quot;&lt;span class=&quot;SpellE&quot;&gt;services&lt;/span&gt;&quot;: {&lt;/p&gt;&#xa;&#xa;&lt;p class=&quot;MsoNormal&quot;&gt;&lt;span style=&quot;mso-spacerun:yes&quot;&gt;��� &lt;/span&gt;&quot;&lt;span class=&quot;SpellE&quot;&gt;wordpress&lt;/span&gt;&quot;: {&lt;/p&gt;&#xa;&#xa;&lt;p class=&quot;MsoNormal&quot;&gt;&lt;span style=&quot;mso-spacerun:yes&quot;&gt;����� &lt;/span&gt;&quot;&lt;span class=&quot;SpellE&quot;&gt;image&lt;/span&gt;&quot;: &quot;&lt;span class=&quot;SpellE&quot;&gt;wordpress&lt;/span&gt;&quot;,&lt;/p&gt;&#xa;&#xa;&lt;p class=&quot;MsoNormal&quot;&gt;&lt;span style=&quot;mso-spacerun:yes&quot;&gt;����� &lt;/span&gt;&quot;&lt;span class=&quot;SpellE&quot;&gt;restart&lt;/span&gt;&quot;: &quot;&lt;span class=&quot;SpellE&quot;&gt;always&lt;/span&gt;&quot;,&lt;/p&gt;&#xa;&#xa;&lt;p class=&quot;MsoNormal&quot;&gt;&lt;span style=&quot;mso-spacerun:yes&quot;&gt;����� &lt;/span&gt;&quot;&lt;span class=&quot;SpellE&quot;&gt;ports&lt;/span&gt;&quot;: [&quot;80:80&quot;],&lt;/p&gt;&#xa;&#xa;&lt;p class=&quot;MsoNormal&quot;&gt;&lt;span style=&quot;mso-spacerun:yes&quot;&gt;����� &lt;/span&gt;&quot;&lt;span class=&quot;SpellE&quot;&gt;environment&lt;/span&gt;&quot;: {&lt;/p&gt;&#xa;&#xa;&lt;p class=&quot;MsoNormal&quot;&gt;&lt;span style=&quot;mso-spacerun:yes&quot;&gt;�������&#xa;&lt;/span&gt;&quot;WORDPRESS_DB_HOST&quot;:&#xa;&quot;db-1.cnw2yuaeu5s6.us-east-1.rds.amazonaws.com&quot;,&lt;/p&gt;&#xa;&#xa;&lt;p class=&quot;MsoNormal&quot;&gt;&lt;span style=&quot;mso-spacerun:yes&quot;&gt;�������&#xa;&lt;/span&gt;&quot;WORDPRESS_DB_USER&quot;: &quot;&lt;span class=&quot;SpellE&quot;&gt;admin&lt;/span&gt;&quot;,&lt;/p&gt;&#xa;&#xa;&lt;p class=&quot;MsoNormal&quot;&gt;&lt;span style=&quot;mso-spacerun:yes&quot;&gt;������� &lt;/span&gt;&quot;WORDPRESS_DB_PASSWORD&quot;:&#xa;&quot;87654321&quot;,&lt;/p&gt;&#xa;&#xa;&lt;p class=&quot;MsoNormal&quot;&gt;&lt;span style=&quot;mso-spacerun:yes&quot;&gt;�������&#xa;&lt;/span&gt;&quot;WORDPRESS_DB_NAME&quot;: &quot;&lt;span class=&quot;SpellE&quot;&gt;wordb&lt;/span&gt;&quot;&lt;/p&gt;&#xa;&#xa;&lt;p class=&quot;MsoNormal&quot;&gt;&lt;span style=&quot;mso-spacerun:yes&quot;&gt;����� &lt;/span&gt;},&lt;/p&gt;&#xa;&#xa;&lt;p class=&quot;MsoNormal&quot;&gt;&lt;span style=&quot;mso-spacerun:yes&quot;&gt;�����&#xa;&lt;/span&gt;&quot;volumes&quot;: [&quot;/&lt;span class=&quot;SpellE&quot;&gt;mnt&lt;/span&gt;/&lt;span class=&quot;SpellE&quot;&gt;efs&lt;/span&gt;/&lt;span class=&quot;SpellE&quot;&gt;wordpress&lt;/span&gt;:/var/&lt;span class=&quot;SpellE&quot;&gt;www&lt;/span&gt;/&lt;span class=&quot;SpellE&quot;&gt;html&lt;/span&gt;&quot;]&lt;/p&gt;&#xa;&#xa;&lt;p class=&quot;MsoNormal&quot;&gt;&lt;span style=&quot;mso-spacerun:yes&quot;&gt;��� &lt;/span&gt;}&lt;/p&gt;&#xa;&#xa;&lt;p class=&quot;MsoNormal&quot;&gt;&lt;span style=&quot;mso-spacerun:yes&quot;&gt;� &lt;/span&gt;},&lt;/p&gt;&#xa;&#xa;&lt;p class=&quot;MsoNormal&quot;&gt;&lt;span style=&quot;mso-spacerun:yes&quot;&gt;� &lt;/span&gt;&quot;&lt;span class=&quot;SpellE&quot;&gt;commands&lt;/span&gt;&quot;: [&lt;/p&gt;&#xa;&#xa;&lt;p class=&quot;MsoNormal&quot;&gt;&lt;span style=&quot;mso-spacerun:yes&quot;&gt;��� &lt;/span&gt;{&lt;/p&gt;&#xa;&#xa;&lt;p class=&quot;MsoNormal&quot;&gt;&lt;span style=&quot;mso-spacerun:yes&quot;&gt;����� &lt;/span&gt;&quot;&lt;span class=&quot;SpellE&quot;&gt;description&lt;/span&gt;&quot;: &quot;Download &lt;span class=&quot;SpellE&quot;&gt;Docker&lt;/span&gt;&#xa;&lt;span class=&quot;SpellE&quot;&gt;Compose&lt;/span&gt;&quot;,&lt;/p&gt;&#xa;&#xa;&lt;p class=&quot;MsoNormal&quot;&gt;&lt;span style=&quot;mso-spacerun:yes&quot;&gt;����� &lt;/span&gt;&quot;&lt;span class=&quot;SpellE&quot;&gt;command&lt;/span&gt;&quot;: &quot;&lt;span class=&quot;SpellE&quot;&gt;sudo&lt;/span&gt; &lt;span class=&quot;SpellE&quot;&gt;curl&lt;/span&gt; -L&#xa;https://github.com/docker/compose/releases/latest/download/docker-compose-$(uname&#xa;-&lt;span class=&quot;GramE&quot;&gt;s)-&lt;/span&gt;$(&lt;span class=&quot;SpellE&quot;&gt;uname&lt;/span&gt; -m) -o /&lt;span class=&quot;SpellE&quot;&gt;usr&lt;/span&gt;/local/bin/&lt;span class=&quot;SpellE&quot;&gt;docker-compose&lt;/span&gt;&quot;&lt;/p&gt;&#xa;&#xa;&lt;p class=&quot;MsoNormal&quot;&gt;&lt;span style=&quot;mso-spacerun:yes&quot;&gt;��� &lt;/span&gt;},&lt;/p&gt;&#xa;&#xa;&lt;p class=&quot;MsoNormal&quot;&gt;&lt;span style=&quot;mso-spacerun:yes&quot;&gt;��� &lt;/span&gt;{&lt;/p&gt;&#xa;&#xa;&lt;p class=&quot;MsoNormal&quot;&gt;&lt;span style=&quot;mso-spacerun:yes&quot;&gt;����� &lt;/span&gt;&quot;&lt;span class=&quot;SpellE&quot;&gt;description&lt;/span&gt;&quot;: &quot;&lt;span class=&quot;SpellE&quot;&gt;Make&lt;/span&gt; &lt;span class=&quot;SpellE&quot;&gt;Docker&lt;/span&gt; &lt;span class=&quot;SpellE&quot;&gt;Compose&lt;/span&gt; &lt;span class=&quot;SpellE&quot;&gt;executable&lt;/span&gt;&quot;,&lt;/p&gt;&#xa;&#xa;&lt;p class=&quot;MsoNormal&quot;&gt;&lt;span style=&quot;mso-spacerun:yes&quot;&gt;����� &lt;/span&gt;&quot;&lt;span class=&quot;SpellE&quot;&gt;command&lt;/span&gt;&quot;: &quot;&lt;span class=&quot;SpellE&quot;&gt;sudo&lt;/span&gt; &lt;span class=&quot;SpellE&quot;&gt;chmod&lt;/span&gt; +x /&lt;span class=&quot;SpellE&quot;&gt;usr&lt;/span&gt;/local/bin/&lt;span class=&quot;SpellE&quot;&gt;docker-compose&lt;/span&gt;&quot;&lt;/p&gt;&#xa;&#xa;&lt;p class=&quot;MsoNormal&quot;&gt;&lt;span style=&quot;mso-spacerun:yes&quot;&gt;��� &lt;/span&gt;},&lt;/p&gt;&#xa;&#xa;&lt;p class=&quot;MsoNormal&quot;&gt;&lt;span style=&quot;mso-spacerun:yes&quot;&gt;��� &lt;/span&gt;{&lt;/p&gt;&#xa;&#xa;&lt;p class=&quot;MsoNormal&quot;&gt;&lt;span style=&quot;mso-spacerun:yes&quot;&gt;����� &lt;/span&gt;&quot;&lt;span class=&quot;SpellE&quot;&gt;description&lt;/span&gt;&quot;: &quot;&lt;span class=&quot;SpellE&quot;&gt;Change&lt;/span&gt; &lt;span class=&quot;SpellE&quot;&gt;directory&lt;/span&gt; &lt;span class=&quot;SpellE&quot;&gt;to&lt;/span&gt; root&quot;,&lt;/p&gt;&#xa;&#xa;&lt;p class=&quot;MsoNormal&quot;&gt;&lt;span style=&quot;mso-spacerun:yes&quot;&gt;����� &lt;/span&gt;&quot;&lt;span class=&quot;SpellE&quot;&gt;command&lt;/span&gt;&quot;: &quot;&lt;span class=&quot;SpellE&quot;&gt;cd&lt;/span&gt; /&quot;&lt;/p&gt;&#xa;&#xa;&lt;p class=&quot;MsoNormal&quot;&gt;&lt;span style=&quot;mso-spacerun:yes&quot;&gt;��� &lt;/span&gt;},&lt;/p&gt;&#xa;&#xa;&lt;p class=&quot;MsoNormal&quot;&gt;&lt;span style=&quot;mso-spacerun:yes&quot;&gt;��� &lt;/span&gt;{&lt;/p&gt;&#xa;&#xa;&lt;p class=&quot;MsoNormal&quot;&gt;&lt;span style=&quot;mso-spacerun:yes&quot;&gt;����� &lt;/span&gt;&quot;&lt;span class=&quot;SpellE&quot;&gt;description&lt;/span&gt;&quot;: &quot;&lt;span class=&quot;SpellE&quot;&gt;Run&lt;/span&gt; &lt;span class=&quot;SpellE&quot;&gt;Docker&lt;/span&gt; &lt;span class=&quot;SpellE&quot;&gt;Compose&lt;/span&gt;&quot;,&lt;/p&gt;&#xa;&#xa;&lt;p class=&quot;MsoNormal&quot;&gt;&lt;span style=&quot;mso-spacerun:yes&quot;&gt;����� &lt;/span&gt;&quot;&lt;span class=&quot;SpellE&quot;&gt;command&lt;/span&gt;&quot;: &quot;&lt;span class=&quot;SpellE&quot;&gt;docker-compose&lt;/span&gt;&#xa;-p &lt;span class=&quot;SpellE&quot;&gt;wordpress&lt;/span&gt; &lt;span class=&quot;SpellE&quot;&gt;up&lt;/span&gt; -d&quot;&lt;/p&gt;&#xa;&#xa;&lt;p class=&quot;MsoNormal&quot;&gt;&lt;span style=&quot;mso-spacerun:yes&quot;&gt;��� &lt;/span&gt;}&lt;/p&gt;&#xa;&#xa;&lt;p class=&quot;MsoNormal&quot;&gt;&lt;span style=&quot;mso-spacerun:yes&quot;&gt;� &lt;/span&gt;]&lt;/p&gt;&#xa;&#xa;&lt;/div&gt;&#xa;&#xa;&#xa;&#xa;" id="E3ndoAVkDQrJRm6qIHq6-1">
          <mxCell style="text;whiteSpace=wrap;html=1;" parent="1" vertex="1">
            <mxGeometry width="500" height="2500" as="geometry" />
          </mxCell>
        </UserObject>
      </root>
    </mxGraphModel>
  </diagram>
</mxfile>
